<svg xmlns="http://www.w3.org/2000/svg" width="1200" height="700" viewBox="0 0 1200 700" fill="none">
  <rect width="1200" height="700" fill="#0f1220"/>
  <circle cx="200" cy="100" r="180" fill="#6c63f1" fill-opacity="0.25"/>
  <circle cx="1000" cy="620" r="200" fill="#14b8a6" fill-opacity="0.2"/>
  <text x="80" y="70" fill="#eef1f9" font-family="Tahoma" font-size="28" font-weight="700">,1Ì'F +(* H1H/</text>
  <rect x="80" y="120" width="320" height="480" rx="28" fill="rgba(255,255,255,0.06)" stroke="rgba(255,255,255,0.12)"/>
  <text x="110" y="170" fill="#c6ccff" font-family="Tahoma" font-size="16">ñ. EHB9Ì* E©'FÌ</text>
  <circle cx="240" cy="320" r="80" fill="none" stroke="#6c63f1" stroke-width="3" stroke-dasharray="8 8"/>
  <circle cx="240" cy="320" r="14" fill="#6c63f1"/>
  <text x="150" y="450" fill="#a7b0c8" font-family="Tahoma" font-size="14">/'.D E-/H/G E-D ©'1</text>
  <text x="165" y="480" fill="#14b8a6" font-family="Tahoma" font-size="14">A'5DG: ñø E*1</text>
  <rect x="440" y="120" width="320" height="480" rx="28" fill="rgba(255,255,255,0.06)" stroke="rgba(255,255,255,0.12)"/>
  <text x="470" y="170" fill="#c6ccff" font-family="Tahoma" font-size="16">ò. 3DAÌ *#ÌÌ/</text>
  <rect x="500" y="220" width="200" height="260" rx="24" fill="rgba(255,255,255,0.08)" stroke="rgba(255,255,255,0.15)"/>
  <circle cx="600" cy="310" r="40" fill="rgba(255,255,255,0.2)"/>
  <rect x="545" y="370" width="110" height="70" rx="20" fill="rgba(255,255,255,0.15)"/>
  <text x="530" y="530" fill="#a7b0c8" font-family="Tahoma" font-size="14">9©3 E/1© -6H1</text>
  <rect x="800" y="120" width="320" height="480" rx="28" fill="rgba(255,255,255,0.06)" stroke="rgba(255,255,255,0.12)"/>
  <text x="830" y="170" fill="#c6ccff" font-family="Tahoma" font-size="16">ó. +(* EHAB</text>
  <circle cx="960" cy="330" r="70" fill="#14b8a6"/>
  <path d="M930 330 L950 350 L1000 300" stroke="white" stroke-width="8" fill="none" stroke-linecap="round" stroke-linejoin="round"/>
  <text x="880" y="450" fill="#eef1f9" font-family="Tahoma" font-size="18" font-weight="700">H1H/ +(* 4/</text>
  <text x="900" y="485" fill="#a7b0c8" font-family="Tahoma" font-size="14">ðø:ñò · /A*1 E1©2Ì</text>
</svg>
