<svg xmlns="http://www.w3.org/2000/svg" width="1200" height="675" viewBox="0 0 1200 675" fill="none">
  <defs>
    <linearGradient id="bg" x1="0" y1="0" x2="1200" y2="675" gradientUnits="userSpaceOnUse">
      <stop stop-color="#0f1220"/>
      <stop offset="0.55" stop-color="#1a1640"/>
      <stop offset="1" stop-color="#0d2a2a"/>
    </linearGradient>
    <radialGradient id="g1" cx="0" cy="0" r="1" gradientUnits="userSpaceOnUse" gradientTransform="translate(980 80) rotate(90) scale(420 420)">
      <stop stop-color="#6c63f1" stop-opacity="0.55"/>
      <stop offset="1" stop-color="#6c63f1" stop-opacity="0"/>
    </radialGradient>
    <radialGradient id="g2" cx="0" cy="0" r="1" gradientUnits="userSpaceOnUse" gradientTransform="translate(120 620) rotate(90) scale(380 380)">
      <stop stop-color="#14b8a6" stop-opacity="0.4"/>
      <stop offset="1" stop-color="#14b8a6" stop-opacity="0"/>
    </radialGradient>
  </defs>
  <rect width="1200" height="675" fill="url(#bg)"/>
  <rect width="1200" height="675" fill="url(#g1)"/>
  <rect width="1200" height="675" fill="url(#g2)"/>
  <rect x="80" y="90" width="1040" height="495" rx="28" fill="rgba(255,255,255,0.06)" stroke="rgba(255,255,255,0.12)"/>
  <rect x="110" y="120" width="220" height="435" rx="18" fill="rgba(255,255,255,0.05)" stroke="rgba(255,255,255,0.1)"/>
  <circle cx="145" cy="160" r="16" fill="#6c63f1"/>
  <rect x="172" y="150" width="120" height="12" rx="6" fill="rgba(255,255,255,0.7)"/>
  <rect x="172" y="170" width="80" height="8" rx="4" fill="rgba(255,255,255,0.35)"/>
  <rect x="130" y="220" width="180" height="36" rx="10" fill="#6c63f1"/>
  <rect x="130" y="270" width="180" height="36" rx="10" fill="rgba(255,255,255,0.06)"/>
  <rect x="130" y="320" width="180" height="36" rx="10" fill="rgba(255,255,255,0.06)"/>
  <rect x="130" y="370" width="180" height="36" rx="10" fill="rgba(255,255,255,0.06)"/>
  <rect x="360" y="120" width="720" height="100" rx="18" fill="rgba(255,255,255,0.06)" stroke="rgba(255,255,255,0.1)"/>
  <text x="390" y="165" fill="#eef1f9" font-family="Tahoma, Arial" font-size="28" font-weight="700">¯'G'F</text>
  <text x="390" y="195" fill="#a7b0c8" font-family="Tahoma, Arial" font-size="16">3'E'FG GH4EF/ -6H1 H :Ì'(</text>
  <rect x="360" y="240" width="220" height="120" rx="16" fill="rgba(108,99,241,0.2)" stroke="rgba(108,99,241,0.35)"/>
  <text x="385" y="285" fill="#c6ccff" font-family="Tahoma, Arial" font-size="14">-'61 'E1H2</text>
  <text x="385" y="325" fill="#fff" font-family="Tahoma, Arial" font-size="36" font-weight="700">ñø</text>
  <rect x="600" y="240" width="220" height="120" rx="16" fill="rgba(20,184,166,0.18)" stroke="rgba(20,184,166,0.35)"/>
  <text x="625" y="285" fill="#99f6e4" font-family="Tahoma, Arial" font-size="14">EÌ'F¯ÌF GA*G</text>
  <text x="625" y="325" fill="#fff" font-family="Tahoma, Arial" font-size="36" font-weight="700">÷kö3</text>
  <rect x="840" y="240" width="240" height="120" rx="16" fill="rgba(255,255,255,0.05)" stroke="rgba(255,255,255,0.1)"/>
  <text x="865" y="285" fill="#a7b0c8" font-family="Tahoma, Arial" font-size="14">*#.Ì1 'E1H2</text>
  <text x="865" y="325" fill="#fff" font-family="Tahoma, Arial" font-size="36" font-weight="700">ó</text>
  <rect x="360" y="380" width="720" height="175" rx="18" fill="rgba(255,255,255,0.05)" stroke="rgba(255,255,255,0.1)"/>
  <rect x="400" y="500" width="40" height="30" rx="6" fill="#6c63f1"/>
  <rect x="460" y="470" width="40" height="60" rx="6" fill="#8182fb"/>
  <rect x="520" y="450" width="40" height="80" rx="6" fill="#6c63f1"/>
  <rect x="580" y="480" width="40" height="50" rx="6" fill="#14b8a6"/>
  <rect x="640" y="440" width="40" height="90" rx="6" fill="#6c63f1"/>
  <rect x="700" y="460" width="40" height="70" rx="6" fill="#8182fb"/>
  <rect x="760" y="490" width="40" height="40" rx="6" fill="#14b8a6"/>
  <rect x="820" y="455" width="40" height="75" rx="6" fill="#6c63f1"/>
  <text x="390" y="420" fill="#a7b0c8" font-family="Tahoma, Arial" font-size="14">1HF/ -6H1 ÷ 1H2 '.Ì1</text>
</svg>
