<svg xmlns="http://www.w3.org/2000/svg" width="480" height="960" viewBox="0 0 480 960" fill="none">
  <rect width="480" height="960" rx="48" fill="#101426"/>
  <rect x="16" y="16" width="448" height="928" rx="36" fill="#f2f4fa"/>
  <rect x="180" y="28" width="120" height="10" rx="5" fill="#d1d5db"/>
  <text x="40" y="90" fill="#101426" font-family="Tahoma" font-size="20" font-weight="700">¯'G'F</text>
  <text x="40" y="120" fill="#4b5570" font-family="Tahoma" font-size="13">+(* -6H1 EH('ÌDÌ</text>
  <rect x="40" y="150" width="400" height="120" rx="22" fill="white" stroke="rgba(15,23,42,0.08)"/>
  <rect x="60" y="180" width="100" height="32" rx="16" fill="#d1fae5"/>
  <text x="78" y="201" fill="#047857" font-family="Tahoma" font-size="12">.'1, '2 4ÌA*</text>
  <text x="60" y="240" fill="#4b5570" font-family="Tahoma" font-size="13">"E'/G +(* H1H/</text>
  <rect x="40" y="300" width="400" height="360" rx="24" fill="white" stroke="rgba(15,23,42,0.08)"/>
  <circle cx="240" cy="460" r="78" fill="#6c63f1"/>
  <text x="205" y="470" fill="white" font-family="Tahoma" font-size="18" font-weight="700">H1H/</text>
  <text x="145" y="580" fill="#4b5570" font-family="Tahoma" font-size="13">EHB9Ì* H 3DAÌ /1 Ì© ,1Ì'F</text>
  <rect x="40" y="700" width="190" height="90" rx="18" fill="white" stroke="rgba(15,23,42,0.08)"/>
  <text x="60" y="740" fill="#8791ad" font-family="Tahoma" font-size="12">'E1H2</text>
  <text x="60" y="770" fill="#101426" font-family="Tahoma" font-size="20" font-weight="700"></text>
  <rect x="250" y="700" width="190" height="90" rx="18" fill="white" stroke="rgba(15,23,42,0.08)"/>
  <text x="270" y="740" fill="#8791ad" font-family="Tahoma" font-size="12">E-D ©'1</text>
  <text x="270" y="770" fill="#101426" font-family="Tahoma" font-size="16" font-weight="700">/A*1 E1©2Ì</text>
  <rect x="80" y="840" width="320" height="64" rx="24" fill="white" stroke="rgba(15,23,42,0.08)"/>
  <circle cx="130" cy="872" r="8" fill="#6c63f1"/>
  <circle cx="210" cy="872" r="8" fill="#d1d5db"/>
  <circle cx="290" cy="872" r="8" fill="#d1d5db"/>
  <circle cx="370" cy="872" r="8" fill="#d1d5db"/>
</svg>
